<svg xmlns="http://www.w3.org/2000/svg" viewBox="0 0 176.87 294.07">
  <defs>
    <style>
      .cls-1 {
        fill: #fff;
      }

      .cls-2 {
        fill: #dcd8e1;
      }

      .cls-3 {
        fill: #fe4c45;
      }

      .cls-4 {
        fill: #fe423d;
      }

      .cls-5 {
        fill: #2392f1;
      }

      .cls-6 {
        fill: #9390a1;
      }

      .cls-7 {
        fill: #fd7e3b;
      }

      .cls-8 {
        fill: #ffd701;
      }

      .cls-9 {
        fill: #a8d2f2;
      }

      .cls-10 {
        fill: #fc463f;
      }

      .cls-11 {
        fill: #e1f2ff;
      }

      .cls-12 {
        fill: #f5d690;
      }

      .cls-13, .cls-14, .cls-15 {
        fill: none;
        stroke: #404044;
        stroke-linecap: round;
        stroke-linejoin: round;
      }

      .cls-13 {
        stroke-width: 3px;
      }

      .cls-14 {
        stroke-width: 2.97px;
      }

      .cls-15 {
        stroke-width: 2px;
      }

      .cls-16 {
        fill: #404044;
      }

      .cls-17 {
        fill: #fe93be;
      }
    </style>
  </defs>
  <title>cat in a rocket</title>
  <g id="Слой_8" data-name="Слой 8">
    <path class="cls-1" d="M149.52,13.47a1.48,1.48,0,0,1,.8.23c.39.25,39.11,25.15,48.32,70.67,4.3,2.28,26.86,15.7,29.79,47.38a1.49,1.49,0,0,1-1.21,1.61l-36.49,7-6.38,15a1.49,1.49,0,0,1-.67.73l-3.15,1.69c.48,2.41,1.07,6.85-.55,8.78-1.38,1.66-5.65,2.92-8.44,3.58,2,3.84,3.9,8.14,3.3,10-.66,2-4.56,4-7,5.19l8.55,41.95a14.13,14.13,0,0,1,4.1-.63c3.27,0,7.38,1.25,10.93,6.15,2.1,2.89,2.84,5.83,2.2,8.71a13.23,13.23,0,0,1-5,7.22,12.44,12.44,0,0,1,3.85,7.09c.41,3.15-.7,6.28-3.31,9.32s-5.37,4.53-8.35,4.53h-.3a9.78,9.78,0,0,1-4.68-1.44c.43,3.31.38,7.86-2,11.75s-6.38,6.26-12.05,7.12a31.83,31.83,0,0,1-4.8.39c-4.48,0-8.05-1.15-10.67-3.45a12.25,12.25,0,0,1-3.2-4.49,15.39,15.39,0,0,1-6.79,6.69,14.05,14.05,0,0,1-6,1.29q-5.27,0-11.74-3.38l-.18-.11a14.35,14.35,0,0,1-5.17-9.11c-.65-4.44.66-9.23,3.9-14.28h0a14.74,14.74,0,0,1-8.57-2.44c-2.68-1.92-4.29-4.88-4.76-8.79-1-8.27,5.57-16.51,12.27-20.06a17.46,17.46,0,0,1,8.12-2.22,12,12,0,0,1,5.74,1.41l4.83-42.64c-2-.27-4.61-.91-5.53-2.44-.78-1.3-.35-4.94,1.27-10.85-4-.91-9.59-2.4-10.8-3.91s-1.36-6.9-1.29-9.94l-2.51-1.14a1.48,1.48,0,0,1-.73-.71L108,142.41c-34.47-4.69-35.67-6.79-36.06-7.48-1.92-3.35,3.52-22.85,12.6-33.44a57.87,57.87,0,0,1,19.41-15c1.48-5.66,11.94-41.81,44.53-72.64a1.48,1.48,0,0,1,1-.41M131.09,232.71a1.52,1.52,0,0,1-1-.37,8.75,8.75,0,0,0-5.92-2.18,15.11,15.11,0,0,0-6.76,1.85c-5.81,3.08-11.54,10.11-10.7,17.05a9.22,9.22,0,0,0,3.53,6.71,11.82,11.82,0,0,0,6.82,1.88,15.28,15.28,0,0,0,2.83-.24,1.53,1.53,0,0,1,.3,0,1.5,1.5,0,0,1,1.19,2.41c-4.08,5.34-5.83,10.27-5.21,14.65a11.58,11.58,0,0,0,3.9,7.12,22.76,22.76,0,0,0,10.22,3,11,11,0,0,0,4.73-1c5.48-2.56,7-9.35,7-9.42a1.5,1.5,0,0,1,1.47-1.18h.17a1.49,1.49,0,0,1,1.32,1.52,10.5,10.5,0,0,0,3.31,7.35c2,1.79,4.95,2.68,8.66,2.68a28.42,28.42,0,0,0,4.34-.35c4.75-.73,8.1-2.64,9.94-5.7,3.44-5.74.72-13.7.69-13.78a1.5,1.5,0,0,1,.71-1.81,1.39,1.39,0,0,1,.71-.18,1.51,1.51,0,0,1,1.19.59s2.59,3.32,6,3.41h.11c2.07,0,4.15-1.15,6.16-3.48s2.9-4.69,2.61-6.95c-.5-3.81-4.15-6.36-4.19-6.38a1.51,1.51,0,0,1,.11-2.55s4.4-2.53,5.26-6.45a7.77,7.77,0,0,0-1.7-6.29c-2.87-4-6.08-5-8.58-5a9.8,9.8,0,0,0-4.4,1,1.47,1.47,0,0,1-.73.19,1.56,1.56,0,0,1-.63-.14,1.51,1.51,0,0,1-.84-1.06l-9.15-44.88a1.49,1.49,0,0,1,.87-1.68c3-1.3,6-3.08,6.49-3.85,0-1.19-2-5.74-4-9.34a1.49,1.49,0,0,1-.05-1.35,1.48,1.48,0,0,1,1.07-.84c3.59-.73,8-2.1,8.7-3s.36-4.48-.31-7.29a1.5,1.5,0,0,1,.75-1.67l3.68-2,6.48-15.25a1.51,1.51,0,0,1,1.1-.89l35.93-6.94c-3.62-32.07-28.38-43.82-28.63-43.94a1.48,1.48,0,0,1-.84-1.08C187.93,45,155.69,21,149.68,16.88c-33.91,32.58-42.9,70.67-43,71.06a1.51,1.51,0,0,1-.92,1.06,54.37,54.37,0,0,0-19,14.45c-8.68,10.12-12.74,26.77-12.29,29.85,2.66,1.34,19.42,4.18,34.67,6.24a1.53,1.53,0,0,1,1.15.83l7.22,14.75,2.93,1.33a1.5,1.5,0,0,1,.88,1.42c-.15,4.11.13,8.22.62,9,.76.7,6.13,2.23,10.63,3.18a1.53,1.53,0,0,1,1,.7,1.5,1.5,0,0,1,.15,1.19c-1.15,4-2.2,8.86-2,10,.47.44,2.69,1,4.68,1.1a1.48,1.48,0,0,1,1.05.54,1.45,1.45,0,0,1,.34,1.13l-5.28,46.64a1.51,1.51,0,0,1-1,1.23,1.49,1.49,0,0,1-.54.11M105.23,87.61h0M74.59,133.53h0M149.52,3.47a11.43,11.43,0,0,0-7.9,3.14,176,176,0,0,0-46.06,73A70.38,70.38,0,0,0,77,95c-6.57,7.67-10.52,17.52-12.29,22.71-5.26,15.43-2.45,20.34-1.4,22.19,2.49,4.36,6.84,5.78,11.45,7,5.46,1.4,14.21,2.95,26.66,4.72l4.77,9.74a11.48,11.48,0,0,0,2.34,3.21c.36,4.8,1.42,8,3.37,10.43a15.94,15.94,0,0,0,7,4.72,14.59,14.59,0,0,0,1.72,8.93,13.12,13.12,0,0,0,3.32,3.69l-2.83,25a28.44,28.44,0,0,0-9.76,3.19c-9.88,5.25-19.07,17.27-17.51,30.11,1,8.47,5.39,13.22,8.87,15.71.31.23.64.45,1,.66a26.1,26.1,0,0,0-.33,9.39,24.17,24.17,0,0,0,9.22,15.76,11.44,11.44,0,0,0,1.39.87c5.73,3,11.24,4.51,16.37,4.51a24,24,0,0,0,10.27-2.24A25,25,0,0,0,143,294a26.72,26.72,0,0,0,14,3.53,42.57,42.57,0,0,0,6.31-.5c10.9-1.66,16.41-7.36,19.11-11.85A24.72,24.72,0,0,0,185,279.2a22,22,0,0,0,11.74-7.53c5.68-6.58,6.21-13,5.65-17.16a20.72,20.72,0,0,0-1.31-5,20.37,20.37,0,0,0,2.3-5.87c.88-4,.93-10.12-3.86-16.73a23.86,23.86,0,0,0-15-9.93L179,190.33a14.6,14.6,0,0,0,5.3-7,13.58,13.58,0,0,0,.22-7.53,14.07,14.07,0,0,0,3.13-2.76A15.6,15.6,0,0,0,191,163a11.63,11.63,0,0,0,2.51-3.68l4.3-10.12,31.27-6a11.45,11.45,0,0,0,9.27-12.35C235.55,100.15,216.67,84.1,207.46,78c-4.65-18.84-14.58-37-28.89-52.69-11.9-13.06-22.47-19.8-22.91-20.08a11.54,11.54,0,0,0-6.14-1.77ZM116.44,90.2c.19-.77,7.86-31.57,34.17-60,10.78,9.06,29.82,28.62,35.41,57.36a11.51,11.51,0,0,0,6.38,8.2c.92.46,15.53,8,21.16,27l-26.08,5a11.5,11.5,0,0,0-8.4,6.79l-5.11,12-.59.32a11.51,11.51,0,0,0-6,10.88l-.34.07a11.51,11.51,0,0,0-7.79,16.86l.19.35a11.53,11.53,0,0,0-4.59,11.66L164,231.64a11.56,11.56,0,0,0,6.48,8.15,11.42,11.42,0,0,0,7.51.72,11.54,11.54,0,0,0-2.53,12.34,11.75,11.75,0,0,0-2.05-.18,11.5,11.5,0,0,0-10.9,15.19c.6,1.87.71,4.61.22,5.42-.06.1-.79.66-2.87,1a19.06,19.06,0,0,1-2.84.24,7.11,7.11,0,0,1-2-.21s0,0,0-.07A11.45,11.45,0,0,0,144.89,263h-.06a11.33,11.33,0,0,0-1.3-.07,11.57,11.57,0,0,0-11.2,8.88,5.76,5.76,0,0,1-1.53,2.66,1.54,1.54,0,0,1-.5.06,10.67,10.67,0,0,1-4.11-1.13,1.34,1.34,0,0,1-.11-.37c-.17-1.18.6-3.69,3.26-7.17a11.55,11.55,0,0,0,.61-13.08,11.43,11.43,0,0,0-9.75-5.4,11.62,11.62,0,0,0-2.12.2,7.75,7.75,0,0,1-1,.07l-.43,0c0-1.78,2.46-5.19,5.47-6.79a6.27,6.27,0,0,1,1.79-.65,11.5,11.5,0,0,0,18.61-7.69l5.29-46.64a11.56,11.56,0,0,0-2.62-8.69,11.26,11.26,0,0,0-2-1.86c.06-.2.12-.4.17-.6a11.51,11.51,0,0,0-8.65-14.46c-1.19-.25-2.33-.52-3.37-.78q0-.6,0-1.23A11.46,11.46,0,0,0,125,147.51L119.34,136a11.5,11.5,0,0,0-8.79-6.34c-10.17-1.37-18.64-2.75-24.37-3.82,1.62-5,4.37-11.35,8.24-15.86a45.66,45.66,0,0,1,15.1-11.67,11.49,11.49,0,0,0,6.92-8.08Z" transform="translate(-61.57 -3.47)"/>
  </g>
  <g id="Слой_7" data-name="Слой 7">
    <path class="cls-2" d="M104.61,87.61S113.53,48.42,148.89,15c0,0,38.87,24.53,47.79,70.41,0,0,26.44,12.1,29.63,46.51L189,139.09l-6.69,15.74-4.14,2.23s1.59,6.69,0,8.6-9.56,3.51-9.56,3.51,4.78,8.6,4.15,10.51-7.33,4.78-7.33,4.78l9.15,44.88s8.4-4.67,14.93,4.35-4,14.93-4,14.93,9.64,6.53,1.86,15.55-14.61,0-14.61,0,6.53,18.65-11.82,21.45-18-11.19-18-11.19-4.05,19-24.26,8.39c0,0-11.19-8.08.93-23.94,0,0-13.45,2.8-15-9.64s16.21-26.43,25.85-18l5.28-46.65s-5-.31-5.9-1.86,1.86-11.2,1.86-11.2-10.26-2.18-11.5-3.73-.94-10-.94-10l-3.42-1.56L108.38,141s-34.52-4.67-35.76-6.84,3.11-20.84,12.44-31.72S104.61,87.61,104.61,87.61Z" transform="translate(-61.57 -3.47)"/>
    <path class="cls-3" d="M104.61,87.61s-5.48,31.91,5,56c.49-1-.43-1.76-1.39-2.34a7.61,7.61,0,0,0-3.27-.79c-10.43-1-20.44-4.54-30.79-6.11a2,2,0,0,1-1.09-.39,1.8,1.8,0,0,1-.41-1.2,16.73,16.73,0,0,1,.86-5.9,74.79,74.79,0,0,1,11-23.1,55.67,55.67,0,0,1,9.81-9.65A65.57,65.57,0,0,1,104.61,87.61Z" transform="translate(-61.57 -3.47)"/>
    <path class="cls-4" d="M196.68,85.38s4.15,30.72-9.58,58.26a5.86,5.86,0,0,1,2.79-3.55,19.59,19.59,0,0,1,4.43-2c2.28-.79,4.57-1.59,6.92-2.17,3-.76,6.17-1.16,9.28-1.63,4.92-.76,9.8-1.73,14.68-2.71a.79.79,0,0,0,.83-.88c.15-5.06-1.24-10-2.61-14.89a50.84,50.84,0,0,0-1.84-5.68c-3.22-7.84-10-13.6-16.47-19C202.45,88.88,200.15,85.38,196.68,85.38Z" transform="translate(-61.57 -3.47)"/>
    <path class="cls-5" d="M103.56,117.07s14.15,6.85,43.69,6.54,49-10.94,49-10.94L192.81,131h-.63a140.41,140.41,0,0,1-47.73,8.07c-27.36-.07-38-6.46-38-6.46" transform="translate(-61.57 -3.47)"/>
    <path class="cls-6" d="M178.2,157.06c-30,11.06-58.94.76-58.94.76a66.54,66.54,0,0,0,.86,7.46,4.59,4.59,0,0,0,1.15,2.6,4.43,4.43,0,0,0,1.8.86c2.75.78,5.69,1.17,8.11,2.72a2.13,2.13,0,0,1,.78.74,2.47,2.47,0,0,1-.1,1.9,48.5,48.5,0,0,0-1.43,5.67,3,3,0,0,0,0,1.52,2.84,2.84,0,0,0,.83,1.09c6,5.54,14.9,6.83,23.05,6.07a24.93,24.93,0,0,0,7.45-1.65c3.31-1.4,6.05-3.86,8.71-6.28a4.68,4.68,0,0,0,1.15-1.36,3.67,3.67,0,0,0,.3-1.61,8.94,8.94,0,0,0-1.23-4.51,5.14,5.14,0,0,1-.87-1.85,2.73,2.73,0,0,1,1-2.34,8.34,8.34,0,0,1,2.31-1.3l4.12-1.74a4,4,0,0,0,1.85-1.26,3.34,3.34,0,0,0,.45-1.71A10.86,10.86,0,0,0,178.2,157.06Z" transform="translate(-61.57 -3.47)"/>
    <path class="cls-7" d="M136.59,185.3l-1.82,8.6a14.72,14.72,0,0,0-.48,4.8,11.21,11.21,0,0,0,1,3.23,9.21,9.21,0,0,0,1.92,2.91,8.72,8.72,0,0,0,3.38,1.81c4.14,1.34,8.62,1.2,12.94.69s8.86-1.48,12.53-3.93a7.08,7.08,0,0,0,2.63-2.72,6.31,6.31,0,0,0,.38-3.77,20.1,20.1,0,0,0-.83-3l-2.7-8.12a1.5,1.5,0,0,0-.37-.69,1.43,1.43,0,0,0-.78-.29,23.67,23.67,0,0,0-5.64.08,172.35,172.35,0,0,1-20.83.55l-2.12-.08" transform="translate(-61.57 -3.47)"/>
    <path class="cls-8" d="M136.48,196.3a7.9,7.9,0,0,0,.83,3,25.24,25.24,0,0,1,2.25-2.69,1.62,1.62,0,0,1,1.2-.67c.53,0,.88.56,1.11,1a10.09,10.09,0,0,1,1,4,12.21,12.21,0,0,1,.53-2.87c.12-.39.32-.83.71-.94a1.24,1.24,0,0,1,.85.16c3.12,1.55,4.47,5.2,5.54,8.51a14.67,14.67,0,0,1,.67-6.47,2.23,2.23,0,0,1,1.22-1.36c1.17-.35,2.11,1,2.61,2.08a6.31,6.31,0,0,1,1.5-4,1.4,1.4,0,0,1,1-.61c.47,0,.82.43,1.08.82a13.5,13.5,0,0,1,2,4.87,18.16,18.16,0,0,1,.59-6.18,2.71,2.71,0,0,1,.57-1.18,2,2,0,0,1,2.38-.07,5.51,5.51,0,0,1,1.61,2,48.41,48.41,0,0,1,5.32,11.39c1.63,5.88,1.13,12.19,2.84,18,1,3.46,2.79,7,1.88,10.48a9.21,9.21,0,0,1-5,5.69,23.33,23.33,0,0,1-7.35,1.82,158.32,158.32,0,0,1-22.4,1.26c-3.12-.05-6.58-.34-8.68-2.64a10.22,10.22,0,0,1-1.72-3c-1.77-4.37.13-9.46.76-13.95q1.29-9.18,3-18.29C135,203.14,135.74,199.71,136.48,196.3Z" transform="translate(-61.57 -3.47)"/>
    <path class="cls-9" d="M180.19,228.14C176.25,227.22,168,234,168,234s-.89-11.19-16.15-10.57-16.15,14.62-16.15,14.62l-5.28-6.84a14.27,14.27,0,0,0-11.17-1.78,20.69,20.69,0,0,0-9.33,6.28,20.35,20.35,0,0,0-4.34,7.34,13.18,13.18,0,0,0,0,8.44,11.15,11.15,0,0,0,12.73,7.12c-.73,4.21-3.24,7.81-3.7,12.05a14.18,14.18,0,0,0,28,4.34c.37,4.87,4.59,8.84,9.3,10.11s9.77.32,14.35-1.38a8.1,8.1,0,0,0,3-1.73,8.57,8.57,0,0,0,1.69-3c1.73-4.29,3.4-9,2.3-13.45,1.67,2.06,4.57,2.54,7.22,2.73a7.19,7.19,0,0,0,3-.24,7.62,7.62,0,0,0,2.91-2.39,17,17,0,0,0,3.67-5.56c1.42-4.27-.9-9.15-4.61-11.68,3.06-2.09,6.34-4.82,6.44-8.52a10.06,10.06,0,0,0-1-4.18,14.44,14.44,0,0,0-4.52-6.13C184.4,228.1,182.55,227.12,180.19,228.14Z" transform="translate(-61.57 -3.47)"/>
    <path class="cls-10" d="M167.09,30.46a29.38,29.38,0,0,1-17.2,9.11,22.65,22.65,0,0,1-18.55-5c4.7-5.93,9.14-11.92,14.57-17.21a5.18,5.18,0,0,1,2.54-1.62c1.58-.28,3,.88,4.22,2q4.26,3.82,8.57,7.61a71.4,71.4,0,0,0,6.9,5.62" transform="translate(-61.57 -3.47)"/>
    <ellipse class="cls-11" cx="90.06" cy="75.59" rx="30.37" ry="29.81"/>
    <path class="cls-12" d="M181.78,85.78c-1.94-4.21-3.67-8.78-6.8-12.2L174.83,68c-.05-1.95-.14-4-1.2-5.63-.31-.48-.58-.92-1.14-1a27,27,0,0,0-6.82,7.74,31.94,31.94,0,0,0-26.8.53c-1.94-2.85-4.46-4.62-7.4-6.42a14.93,14.93,0,0,0-1.84,6.71,56.71,56.71,0,0,0,.47,12.14,78.64,78.64,0,0,0-3.92,10.83c-.86,3.06,3.32,5.5,5.76,7.55a53.39,53.39,0,0,0,5.23,4,26.17,26.17,0,0,0,29.73-1c1.41-1,2.71,0,4.16-1s3-3.91,4.4-5C178.88,94.84,183.6,89.72,181.78,85.78Z" transform="translate(-61.57 -3.47)"/>
  </g>
  <g id="Слой_6" data-name="Слой 6">
    <path class="cls-13" d="M105.23,87.61S114.16,48.42,149.52,15c0,0,38.87,24.53,47.79,70.41,0,0,26.44,12.1,29.63,46.51l-37.28,7.2L183,154.83l-4.14,2.23s1.59,6.69,0,8.6-9.56,3.51-9.56,3.51,4.78,8.6,4.14,10.51-7.32,4.78-7.32,4.78l9.15,44.88s8.4-4.67,14.93,4.35-4,14.93-4,14.93,9.64,6.53,1.86,15.55-14.61,0-14.61,0,6.53,18.65-11.82,21.45-18-11.19-18-11.19-4,19-24.25,8.39c0,0-11.19-8.08.93-23.94,0,0-13.45,2.8-15-9.64s16.22-26.43,25.86-18l5.28-46.65s-5-.31-5.91-1.86,1.87-11.2,1.87-11.2-10.26-2.18-11.51-3.73-.93-10-.93-10l-3.42-1.56L109,141s-34.52-4.67-35.76-6.84,3.11-20.84,12.44-31.72S105.23,87.61,105.23,87.61Z" transform="translate(-61.57 -3.47)"/>
    <path class="cls-13" d="M105.23,87.61s-5.48,31.91,5.06,56" transform="translate(-61.57 -3.47)"/>
    <path class="cls-13" d="M197.31,85.38s4.15,30.72-9.58,58.26" transform="translate(-61.57 -3.47)"/>
    <path class="cls-13" d="M104.19,117.07s14.15,6.85,43.69,6.54,49-10.94,49-10.94" transform="translate(-61.57 -3.47)"/>
    <path class="cls-13" d="M107.05,132.63s10.66,6.39,38,6.46A140.48,140.48,0,0,0,192.81,131" transform="translate(-61.57 -3.47)"/>
    <path class="cls-13" d="M119.89,157.82s28.94,10.3,58.94-.76" transform="translate(-61.57 -3.47)"/>
    <path class="cls-13" d="M130.56,171.1s22.49,4.37,43.69-3.21" transform="translate(-61.57 -3.47)"/>
    <path class="cls-13" d="M136.37,184.56s18.26,2.94,32.3-1.33" transform="translate(-61.57 -3.47)"/>
    <path class="cls-13" d="M131.09,231.21l5.28,6.84s.89-14,16.15-14.62S168.67,234,168.67,234s8.2-6.78,12.15-5.86" transform="translate(-61.57 -3.47)"/>
    <path class="cls-13" d="M177.11,234s5.59.94,6.84,6.22" transform="translate(-61.57 -3.47)"/>
    <path class="cls-13" d="M178.83,261.68s2.63.93,5.12-4.67" transform="translate(-61.57 -3.47)"/>
    <path class="cls-13" d="M119.89,247.69s-2.18-9.33,8.71-7.47" transform="translate(-61.57 -3.47)"/>
    <path class="cls-13" d="M132,34.53a22.68,22.68,0,0,0,18.56,5,29.38,29.38,0,0,0,17.2-9.11" transform="translate(-61.57 -3.47)"/>
    <ellipse class="cls-14" cx="90.68" cy="75.59" rx="30.37" ry="29.81"/>
    <path class="cls-15" d="M126.18,92.9a78.64,78.64,0,0,1,3.92-10.83,56.71,56.71,0,0,1-.47-12.14,14.93,14.93,0,0,1,1.84-6.71c2.94,1.8,5.46,3.57,7.4,6.42a31.94,31.94,0,0,1,26.8-.53,27,27,0,0,1,6.82-7.74c.56.07.83.51,1.14,1,1.06,1.63,1.15,3.68,1.2,5.63l.15,5.59c3.13,3.42,4.86,8,6.8,12.2" transform="translate(-61.57 -3.47)"/>
    <path class="cls-15" d="M172.8,80.41A31.64,31.64,0,0,1,179,76.23a5.26,5.26,0,0,1,2.73-.78" transform="translate(-61.57 -3.47)"/>
    <path class="cls-15" d="M174.8,83.22a21,21,0,0,1,6.87-4.13" transform="translate(-61.57 -3.47)"/>
    <path class="cls-15" d="M126,80.74a13.41,13.41,0,0,1,6.64.74" transform="translate(-61.57 -3.47)"/>
    <path class="cls-15" d="M125.31,84.3l4.95.91a2.64,2.64,0,0,1,1.83.88" transform="translate(-61.57 -3.47)"/>
    <path class="cls-15" d="M147.77,82a3,3,0,0,0,3.65,3.83,3.11,3.11,0,0,0,2.19-2.13,3.92,3.92,0,0,0,4.77,1.38,3.12,3.12,0,0,0,1.51-1.49,2.23,2.23,0,0,0-.12-2.07" transform="translate(-61.57 -3.47)"/>
    <path class="cls-15" d="M131.13,99.54a10.87,10.87,0,0,1,1.25-7.31,8.56,8.56,0,0,1,6.05-4.11A7,7,0,0,1,145,91c1.25,1.84,1.44,4.17,1.59,6.39l.73,10.53" transform="translate(-61.57 -3.47)"/>
    <path class="cls-15" d="M161.41,106.8a67.3,67.3,0,0,0-.88-6.93,21.75,21.75,0,0,1-.14-7,9.56,9.56,0,0,1,3.37-6,6.13,6.13,0,0,1,6.57-.64c1.62.94,2.58,2.68,3.47,4.33l2.94,5.52" transform="translate(-61.57 -3.47)"/>
    <circle class="cls-16" cx="80.29" cy="75.45" r="2.7"/>
    <circle class="cls-16" cx="103.31" cy="73.88" r="2.63"/>
    <path class="cls-17" d="M135.4,98.31a3.74,3.74,0,0,0,1.4,3.24,3.18,3.18,0,0,0,4.72-.88,3.58,3.58,0,0,0-.17-3.86C139.43,94.19,135.68,95,135.4,98.31Z" transform="translate(-61.57 -3.47)"/>
    <path class="cls-17" d="M134.85,94.56a1.26,1.26,0,0,0,1.46.22,1.36,1.36,0,0,0,.67-1.34,1.4,1.4,0,0,0-.83-1.09C134.7,91.75,133.87,93.56,134.85,94.56Z" transform="translate(-61.57 -3.47)"/>
    <path class="cls-17" d="M138.6,92.23a2.4,2.4,0,0,0,0,1.3,1.11,1.11,0,0,0,.92.83,1.23,1.23,0,0,0,.89-.38,1.77,1.77,0,0,0,.57-1.27,1.4,1.4,0,0,0-.69-1.19,1.13,1.13,0,0,0-1.32.17" transform="translate(-61.57 -3.47)"/>
    <path class="cls-17" d="M142.31,95.55a1.17,1.17,0,0,0,1.56.35,1.37,1.37,0,0,0,.51-1.58c-.2-.56-.89-1.19-1.49-.82A1.7,1.7,0,0,0,142.31,95.55Z" transform="translate(-61.57 -3.47)"/>
    <path class="cls-17" d="M166,97.08a3.74,3.74,0,0,0,2.83,2.1A3.32,3.32,0,0,0,172,97.72a3.27,3.27,0,0,0,.48-1.67,3.59,3.59,0,0,0-2.08-3.25C167.4,91.49,164.57,94.09,166,97.08Z" transform="translate(-61.57 -3.47)"/>
    <path class="cls-17" d="M163.62,94.12a1.28,1.28,0,0,0,1.38-.55,1.36,1.36,0,0,0-.09-1.5,1.42,1.42,0,0,0-1.27-.52A1.3,1.3,0,0,0,163.62,94.12Z" transform="translate(-61.57 -3.47)"/>
    <path class="cls-17" d="M165.7,90.22a2.37,2.37,0,0,0,.62,1.14,1.11,1.11,0,0,0,1.21.26,1.22,1.22,0,0,0,.58-.78,1.71,1.71,0,0,0-.15-1.38,1.38,1.38,0,0,0-1.19-.68,1.13,1.13,0,0,0-1.06.81" transform="translate(-61.57 -3.47)"/>
    <path class="cls-17" d="M170.57,91.23a1.17,1.17,0,0,0,1.53-.48,1.37,1.37,0,0,0-.35-1.62c-.46-.39-1.37-.59-1.7,0A1.72,1.72,0,0,0,170.57,91.23Z" transform="translate(-61.57 -3.47)"/>
  </g>
</svg>
